<svg width="88" height="89" viewBox="0 0 88 89" fill="none" xmlns="http://www.w3.org/2000/svg">
<circle cx="43.961" cy="44.3919" r="43.8514" fill="#1F3984" fill-opacity="0.15"/>
<path fill-rule="evenodd" clip-rule="evenodd" d="M38.0956 22.8458C37.5023 23.3514 37.2057 23.6042 36.8889 23.8166C36.1626 24.3033 35.347 24.6412 34.4893 24.8105C34.1151 24.8844 33.7266 24.9154 32.9496 24.9774C30.9973 25.1332 30.0211 25.2111 29.2067 25.4987C27.3231 26.1641 25.8414 27.6457 25.1761 29.5294C24.8884 30.3438 24.8105 31.3199 24.6547 33.2722C24.5927 34.0493 24.5617 34.4378 24.4879 34.812C24.3185 35.6697 23.9807 36.4853 23.4939 37.2115C23.2816 37.5283 23.0288 37.825 22.5232 38.4183C21.2529 39.9089 20.6177 40.6543 20.2452 41.4335C19.3837 43.2359 19.3837 45.3313 20.2452 47.1337C20.6177 47.913 21.2529 48.6583 22.5232 50.149C23.0287 50.7422 23.2816 51.0389 23.4939 51.3557C23.9807 52.0819 24.3185 52.8975 24.4879 53.7553C24.5617 54.1294 24.5927 54.518 24.6547 55.295C24.8105 57.2473 24.8884 58.2235 25.1761 59.0379C25.8414 60.9215 27.3231 62.4032 29.2067 63.0685C30.0211 63.3561 30.9973 63.434 32.9496 63.5898C33.7266 63.6519 34.1151 63.6829 34.4893 63.7567C35.347 63.9261 36.1626 64.2639 36.8889 64.7507C37.2057 64.963 37.5023 65.2158 38.0956 65.7214C39.5863 66.9917 40.3316 67.6269 41.1109 67.9994C42.9133 68.8609 45.0086 68.8609 46.811 67.9994C47.5903 67.6269 48.3357 66.9917 49.8263 65.7214C50.4196 65.2158 50.7163 64.963 51.0331 64.7507C51.7593 64.2639 52.5749 63.9261 53.4326 63.7567C53.8068 63.6829 54.1953 63.6519 54.9723 63.5898C56.9247 63.434 57.9008 63.3561 58.7152 63.0685C60.5989 62.4032 62.0805 60.9215 62.7458 59.0379C63.0335 58.2235 63.1114 57.2473 63.2672 55.295C63.3292 54.518 63.3602 54.1294 63.4341 53.7553C63.6034 52.8975 63.9412 52.082 64.428 51.3557C64.6404 51.0389 64.8931 50.7423 65.3987 50.149C66.6691 48.6583 67.3042 47.913 67.6767 47.1337C68.5382 45.3313 68.5382 43.2359 67.6767 41.4335C67.3042 40.6543 66.6691 39.9089 65.3987 38.4183C64.8931 37.825 64.6404 37.5283 64.428 37.2115C63.9412 36.4853 63.6034 35.6697 63.4341 34.812C63.3602 34.4378 63.3292 34.0493 63.2672 33.2722C63.1114 31.3199 63.0335 30.3438 62.7458 29.5294C62.0805 27.6457 60.5989 26.1641 58.7152 25.4987C57.9008 25.2111 56.9247 25.1332 54.9723 24.9774C54.1953 24.9154 53.8068 24.8844 53.4326 24.8105C52.5749 24.6412 51.7593 24.3033 51.0331 23.8166C50.7163 23.6042 50.4196 23.3514 49.8263 22.8458C48.3357 21.5755 47.5903 20.9403 46.811 20.5679C45.0086 19.7064 42.9133 19.7064 41.1109 20.5679C40.3316 20.9403 39.5863 21.5755 38.0956 22.8458ZM54.6156 39.0778C55.3899 38.3035 55.3899 37.0481 54.6156 36.2738C53.8413 35.4995 52.5859 35.4995 51.8116 36.2738L39.9955 48.0899L36.1103 44.2047C35.336 43.4304 34.0806 43.4304 33.3063 44.2047C32.532 44.979 32.532 46.2344 33.3063 47.0087L38.5935 52.2959C39.3678 53.0702 40.6232 53.0702 41.3975 52.2959L54.6156 39.0778Z" fill="#1F3984"/>
</svg>
