<svg width="89" height="88" viewBox="0 0 89 88" fill="none" xmlns="http://www.w3.org/2000/svg">
<circle cx="44.8304" cy="43.94" r="43.8514" fill="#1F3984" fill-opacity="0.15"/>
<path fill-rule="evenodd" clip-rule="evenodd" d="M23.8243 27.0874C22.9046 28.3978 22.9046 32.2928 22.9046 40.0827V43.9189C22.9046 57.6543 33.2315 64.3199 39.7108 67.1502C41.4684 67.918 42.3472 68.3019 44.8303 68.3019C47.3134 68.3019 48.1922 67.918 49.9498 67.1502C56.4291 64.3199 66.756 57.6543 66.756 43.9189V40.0827C66.756 32.2928 66.756 28.3978 65.8363 27.0874C64.9166 25.7771 61.2543 24.5235 53.9297 22.0162L52.5342 21.5386C48.716 20.2316 46.807 19.5781 44.8303 19.5781C42.8536 19.5781 40.9445 20.2316 37.1264 21.5386L35.7309 22.0162C28.4063 24.5235 24.744 25.7771 23.8243 27.0874ZM52.2837 40.2845C52.9558 39.5318 52.8904 38.3768 52.1376 37.7047C51.3849 37.0326 50.2299 37.098 49.5578 37.8507L42.2201 46.069L40.1027 43.6976C39.4307 42.9448 38.2756 42.8795 37.5229 43.5515C36.7702 44.2236 36.7048 45.3786 37.3769 46.1314L40.8571 50.0293C41.2038 50.4175 41.6996 50.6395 42.2201 50.6395C42.7406 50.6395 43.2364 50.4175 43.583 50.0293L52.2837 40.2845Z" fill="#1F3984"/>
</svg>
