<svg width="88" height="88" viewBox="0 0 88 88" fill="none" xmlns="http://www.w3.org/2000/svg">
<circle cx="43.961" cy="43.94" r="43.8514" fill="#1F3984" fill-opacity="0.15"/>
<path d="M32.8832 21.3143C33.7962 18.9994 37.0724 18.9994 37.9854 21.3143L40.8147 28.488C41.0934 29.1948 41.6529 29.7542 42.3596 30.033L49.5333 32.8623C51.8483 33.7752 51.8483 37.0514 49.5333 37.9644L42.3596 40.7937C41.6529 41.0724 41.0934 41.6319 40.8147 42.3386L37.9854 49.5124C37.0724 51.8273 33.7962 51.8273 32.8832 49.5124L30.054 42.3386C29.7752 41.6319 29.2158 41.0724 28.509 40.7937L21.3353 37.9644C19.0204 37.0514 19.0204 33.7752 21.3353 32.8623L28.509 30.033C29.2158 29.7542 29.7752 29.1948 30.054 28.488L32.8832 21.3143Z" fill="#1F3984"/>
<path d="M55.958 47.3303C56.4598 46.0582 58.2602 46.0582 58.7619 47.3303L60.9562 52.8939C61.1093 53.2823 61.4168 53.5897 61.8052 53.7429L67.3687 55.9371C68.6409 56.4388 68.6409 58.2393 67.3687 58.741L61.8052 60.9352C61.4168 61.0884 61.1093 61.3959 60.9562 61.7843L58.7619 67.3478C58.2602 68.6199 56.4598 68.6199 55.958 67.3478L53.7638 61.7843C53.6106 61.3959 53.3032 61.0884 52.9148 60.9352L47.3513 58.741C46.0791 58.2393 46.0791 56.4388 47.3513 55.9371L52.9148 53.7429C53.3032 53.5897 53.6106 53.2823 53.7638 52.8939L55.958 47.3303Z" fill="#1F3984"/>
</svg>
