<svg width="45" height="46" viewBox="0 0 45 46" fill="none" xmlns="http://www.w3.org/2000/svg">
<path d="M7.5 15.9504C7.5 10.6471 7.5 7.99543 9.14752 6.3479C10.795 4.70038 13.4467 4.70038 18.75 4.70038H26.25C31.5533 4.70038 34.205 4.70038 35.8525 6.3479C37.5 7.99543 37.5 10.6471 37.5 15.9504V30.9504C37.5 36.2537 37.5 38.9053 35.8525 40.5529C34.205 42.2004 31.5533 42.2004 26.25 42.2004H18.75C13.4467 42.2004 10.795 42.2004 9.14752 40.5529C7.5 38.9053 7.5 36.2537 7.5 30.9504V15.9504Z" stroke="#F2994A" stroke-width="2.8125"/>
<path d="M37.3083 30.9504H14.8083C13.0646 30.9504 12.1928 30.9504 11.4775 31.142C9.53633 31.6622 8.02013 33.1784 7.5 35.1195" stroke="#F2994A" stroke-width="2.8125"/>
<path d="M15 14.0754H30" stroke="#F2994A" stroke-width="2.8125" stroke-linecap="round"/>
<path d="M15 20.6379H24.375" stroke="#F2994A" stroke-width="2.8125" stroke-linecap="round"/>
<path d="M24.375 30.9504V37.5709C24.375 38.0876 24.375 38.346 24.1971 38.4504C24.0193 38.5548 23.7761 38.4393 23.2896 38.2082L20.9604 37.1018C20.7958 37.0236 20.7135 36.9845 20.625 36.9845C20.5365 36.9845 20.4542 37.0236 20.2896 37.1018L17.9604 38.2082C17.4739 38.4393 17.2307 38.5548 17.0529 38.4504C16.875 38.346 16.875 38.0876 16.875 37.5709V31.7942" stroke="#F2994A" stroke-width="2.8125" stroke-linecap="round"/>
</svg>
