<svg width="127" height="25" viewBox="0 0 127 25" fill="none" xmlns="http://www.w3.org/2000/svg">
<path d="M4.38226 0.450195C1.95468 0.450195 0 2.40487 0 4.83244V20.0679C0 22.4955 1.95468 24.4502 4.38226 24.4502H12.6398V15.0677H10.1588V11.6897H12.6398V8.80369C12.6398 6.53629 14.1057 4.45444 17.4825 4.45444C18.8497 4.45444 19.8608 4.5857 19.8608 4.5857L19.7813 7.7402C19.7813 7.7402 18.7501 7.73046 17.625 7.73046C16.4073 7.73046 16.212 8.29153 16.212 9.22297V11.6897H19.878L19.7183 15.0677H16.212V24.4502H19.6177C22.0453 24.4502 24 22.4955 24 20.0679V4.83247C24 2.4049 22.0453 0.450219 19.6177 0.450219H4.38223L4.38226 0.450195Z" fill="white"/>
<path d="M54 7.98145C53.4167 8.24186 52.7865 8.41895 52.1094 8.5127C52.8177 8.09603 53.3021 7.48665 53.5625 6.68457C52.8854 7.0804 52.1875 7.34603 51.4688 7.48145C50.8333 6.79395 50.0365 6.4502 49.0781 6.4502C48.1719 6.4502 47.3984 6.77051 46.7578 7.41113C46.1172 8.05176 45.7969 8.8252 45.7969 9.73145C45.7969 10.0335 45.8229 10.2835 45.875 10.4814C44.5312 10.4085 43.2708 10.07 42.0938 9.46582C40.9167 8.86165 39.9167 8.05436 39.0938 7.04395C38.7917 7.56478 38.6406 8.11686 38.6406 8.7002C38.6406 9.8877 39.1146 10.7992 40.0625 11.4346C39.5729 11.4242 39.0521 11.2887 38.5 11.0283V11.0596C38.5 11.8408 38.7604 12.5361 39.2812 13.1455C39.8021 13.7549 40.4427 14.1325 41.2031 14.2783C40.901 14.3617 40.6354 14.4033 40.4062 14.4033C40.2708 14.4033 40.0677 14.3825 39.7969 14.3408C40.0156 14.9971 40.4036 15.5387 40.9609 15.9658C41.5182 16.3929 42.151 16.6117 42.8594 16.6221C41.651 17.5596 40.2917 18.0283 38.7812 18.0283C38.5104 18.0283 38.25 18.0127 38 17.9814C39.5417 18.9606 41.2188 19.4502 43.0312 19.4502C44.1979 19.4502 45.2917 19.2653 46.3125 18.8955C47.3333 18.5257 48.2083 18.0309 48.9375 17.4111C49.6667 16.7913 50.2943 16.0778 50.8203 15.2705C51.3464 14.4632 51.737 13.6195 51.9922 12.7393C52.2474 11.859 52.375 10.9814 52.375 10.1064C52.375 9.91895 52.3698 9.77832 52.3594 9.68457C53.0156 9.21582 53.5625 8.64811 54 7.98145ZM58 4.9502V19.9502C58 21.1898 57.5599 22.2497 56.6797 23.1299C55.7995 24.0101 54.7396 24.4502 53.5 24.4502H38.5C37.2604 24.4502 36.2005 24.0101 35.3203 23.1299C34.4401 22.2497 34 21.1898 34 19.9502V4.9502C34 3.71061 34.4401 2.65072 35.3203 1.77051C36.2005 0.890299 37.2604 0.450195 38.5 0.450195H53.5C54.7396 0.450195 55.7995 0.890299 56.6797 1.77051C57.5599 2.65072 58 3.71061 58 4.9502Z" fill="white"/>
<path d="M80.5 9.5927C79.9113 9.59291 79.336 9.76068 78.8466 10.0748C78.3573 10.3889 77.9759 10.8353 77.7508 11.3574C77.5257 11.8796 77.4669 12.4541 77.5819 13.0083C77.6969 13.5626 77.9804 14.0716 78.3968 14.4711C78.8131 14.8707 79.3435 15.1427 79.9208 15.2529C80.4982 15.363 81.0966 15.3064 81.6405 15.0901C82.1843 14.8738 82.6491 14.5075 82.9761 14.0376C83.3031 13.5677 83.4777 13.0153 83.4777 12.4502C83.4771 11.6923 83.1631 10.9657 82.6048 10.4299C82.0465 9.89409 81.2894 9.59298 80.5 9.5927ZM87.4593 7.39627C87.3077 7.02761 87.0789 6.69278 86.787 6.41254C86.4951 6.1323 86.1463 5.91263 85.7623 5.76716C84.5904 5.32305 81.8002 5.4227 80.5 5.4227C79.1998 5.4227 76.4124 5.3193 75.2372 5.76716C74.8531 5.91263 74.5044 6.1323 74.2124 6.41254C73.9205 6.69278 73.6917 7.02761 73.5402 7.39627C73.0781 8.52127 73.1814 11.2025 73.1814 12.4497C73.1814 13.6968 73.0781 16.3748 73.5424 17.5036C73.6939 17.8722 73.9228 18.2071 74.2147 18.4873C74.5066 18.7676 74.8554 18.9872 75.2394 19.1327C76.4113 19.5768 79.2015 19.4772 80.5022 19.4772C81.803 19.4772 84.5893 19.5806 85.7645 19.1327C86.1485 18.9872 86.4973 18.7676 86.7892 18.4873C87.0811 18.2071 87.31 17.8722 87.4615 17.5036C87.9275 16.3786 87.8203 13.6973 87.8203 12.4502C87.8203 11.2031 87.9275 8.52555 87.4615 7.3968L87.4593 7.39627ZM80.5 16.8431C79.595 16.8431 78.7103 16.5854 77.9578 16.1027C77.2053 15.62 76.6188 14.934 76.2724 14.1313C75.9261 13.3286 75.8355 12.4453 76.012 11.5932C76.1886 10.7411 76.6244 9.95833 77.2644 9.34398C77.9043 8.72962 78.7197 8.31124 79.6073 8.14175C80.4949 7.97225 81.415 8.05924 82.2511 8.39172C83.0873 8.72421 83.8019 9.28725 84.3047 10.0097C84.8075 10.7321 85.0759 11.5814 85.0759 12.4502C85.0766 13.0273 84.9588 13.5988 84.7291 14.1321C84.4994 14.6654 84.1623 15.1499 83.7373 15.558C83.3122 15.966 82.8075 16.2896 82.252 16.5101C81.6965 16.7306 81.1011 16.8438 80.5 16.8431ZM85.2645 8.89841C85.0532 8.89852 84.8467 8.83847 84.671 8.72587C84.4952 8.61326 84.3583 8.45316 84.2773 8.26581C84.1964 8.07846 84.1752 7.87228 84.2163 7.67334C84.2575 7.47441 84.3592 7.29166 84.5085 7.1482C84.6579 7.00475 84.8482 6.90704 85.0554 6.86744C85.2626 6.82783 85.4774 6.8481 85.6726 6.92569C85.8678 7.00329 86.0346 7.13471 86.152 7.30334C86.2694 7.47197 86.332 7.67023 86.332 7.87305C86.3326 8.00774 86.3055 8.14121 86.2522 8.26581C86.199 8.39041 86.1206 8.50369 86.0216 8.59916C85.9227 8.69462 85.805 8.77038 85.6755 8.8221C85.5459 8.87382 85.407 8.90048 85.2667 8.90055L85.2645 8.89841ZM90.3214 0.450195H70.6786C69.9682 0.450195 69.2869 0.721113 68.7845 1.20335C68.2822 1.68559 68 2.33964 68 3.02162V21.8788C68 22.5608 68.2822 23.2148 68.7845 23.697C69.2869 24.1793 69.9682 24.4502 70.6786 24.4502H90.3214C91.0318 24.4502 91.7131 24.1793 92.2155 23.697C92.7178 23.2148 93 22.5608 93 21.8788V3.02162C93 2.33964 92.7178 1.68559 92.2155 1.20335C91.7131 0.721113 91.0318 0.450195 90.3214 0.450195ZM89.3661 15.9859C89.2941 17.3589 88.9676 18.5756 87.9235 19.5752C86.8795 20.5748 85.6133 20.8947 84.1847 20.96C82.7109 21.0398 78.2924 21.0398 76.8186 20.96C75.3884 20.8909 74.1256 20.577 73.0798 19.5752C72.034 18.5734 71.7054 17.3563 71.6373 15.9859C71.5541 14.5706 71.5541 10.3282 71.6373 8.91448C71.7093 7.54145 72.0318 6.32484 73.0798 5.3252C74.1278 4.32555 75.394 4.00948 76.8186 3.94412C78.2924 3.8643 82.7109 3.8643 84.1847 3.94412C85.615 4.01323 86.8817 4.32716 87.9235 5.32895C88.9654 6.33073 89.298 7.54787 89.3661 8.92091C89.4492 10.3309 89.4492 14.5695 89.3661 15.9859Z" fill="white"/>
<path d="M117.359 18.8096V16.3564C117.359 15.8356 117.208 15.5752 116.906 15.5752C116.729 15.5752 116.557 15.6585 116.391 15.8252V19.3252C116.557 19.4919 116.729 19.5752 116.906 19.5752C117.208 19.5752 117.359 19.32 117.359 18.8096ZM120.234 16.9033H121.266V16.3721C121.266 15.8408 121.094 15.5752 120.75 15.5752C120.406 15.5752 120.234 15.8408 120.234 16.3721V16.9033ZM111.312 12.7471V13.8408H110.062V20.4502H108.906V13.8408H107.688V12.7471H111.312ZM114.453 14.7158V20.4502H113.406V19.8252C113 20.2939 112.604 20.5283 112.219 20.5283C111.875 20.5283 111.656 20.3825 111.562 20.0908C111.5 19.9137 111.469 19.6325 111.469 19.2471V14.7158H112.5V18.9346C112.5 19.1846 112.505 19.32 112.516 19.3408C112.526 19.4971 112.604 19.5752 112.75 19.5752C112.958 19.5752 113.177 19.4137 113.406 19.0908V14.7158H114.453ZM118.391 16.4502V18.7314C118.391 19.2731 118.354 19.6533 118.281 19.8721C118.156 20.3096 117.88 20.5283 117.453 20.5283C117.089 20.5283 116.734 20.3148 116.391 19.8877V20.4502H115.344V12.7471H116.391V15.2627C116.724 14.846 117.078 14.6377 117.453 14.6377C117.88 14.6377 118.156 14.8564 118.281 15.2939C118.354 15.5127 118.391 15.8981 118.391 16.4502ZM122.312 18.4658V18.6064C122.312 18.9085 122.302 19.1325 122.281 19.2783C122.25 19.5075 122.172 19.7158 122.047 19.9033C121.766 20.32 121.349 20.5283 120.797 20.5283C120.255 20.5283 119.833 20.3304 119.531 19.9346C119.312 19.6533 119.203 19.2054 119.203 18.5908V16.5752C119.203 15.9606 119.307 15.5127 119.516 15.2314C119.818 14.8356 120.234 14.6377 120.766 14.6377C121.297 14.6377 121.703 14.8356 121.984 15.2314C122.203 15.5335 122.312 15.9814 122.312 16.5752V17.7627H120.234V18.7783C120.234 19.3096 120.411 19.5752 120.766 19.5752C121.016 19.5752 121.172 19.4398 121.234 19.1689C121.234 19.1585 121.237 19.1221 121.242 19.0596C121.247 18.9971 121.25 18.9111 121.25 18.8018V18.4658H122.312ZM115.266 5.59082V8.02832C115.266 8.55957 115.099 8.8252 114.766 8.8252C114.432 8.8252 114.266 8.55957 114.266 8.02832V5.59082C114.266 5.04915 114.432 4.77832 114.766 4.77832C115.099 4.77832 115.266 5.04915 115.266 5.59082ZM123.594 16.7314C123.594 14.8877 123.495 13.5335 123.297 12.6689C123.193 12.2106 122.969 11.8278 122.625 11.5205C122.281 11.2132 121.885 11.0335 121.438 10.9814C120.021 10.8252 117.875 10.7471 115 10.7471C112.135 10.7471 109.995 10.8252 108.578 10.9814C108.12 11.0335 107.721 11.2132 107.383 11.5205C107.044 11.8278 106.823 12.2106 106.719 12.6689C106.51 13.5752 106.406 14.9294 106.406 16.7314C106.406 18.5648 106.51 19.9189 106.719 20.7939C106.823 21.2419 107.044 21.6221 107.383 21.9346C107.721 22.2471 108.115 22.4294 108.562 22.4814C109.99 22.6377 112.135 22.7158 115 22.7158C117.865 22.7158 120.01 22.6377 121.438 22.4814C121.885 22.4294 122.279 22.2471 122.617 21.9346C122.956 21.6221 123.177 21.2419 123.281 20.7939C123.49 19.9189 123.594 18.5648 123.594 16.7314ZM111.797 6.55957L113.203 1.93457H112.031L111.234 4.98145L110.406 1.93457H109.188C109.26 2.17415 109.38 2.53353 109.547 3.0127L109.922 4.09082C110.286 5.16374 110.526 5.98665 110.641 6.55957V9.7002H111.797V6.55957ZM116.312 7.8252V5.79395C116.312 5.18978 116.203 4.73665 115.984 4.43457C115.682 4.03874 115.276 3.84082 114.766 3.84082C114.234 3.84082 113.828 4.03874 113.547 4.43457C113.328 4.73665 113.219 5.18978 113.219 5.79395V7.8252C113.219 8.42936 113.328 8.88249 113.547 9.18457C113.828 9.5804 114.234 9.77832 114.766 9.77832C115.276 9.77832 115.682 9.5804 115.984 9.18457C116.203 8.90332 116.312 8.4502 116.312 7.8252ZM119.141 9.7002H120.188V3.91895H119.141V8.34082C118.911 8.66374 118.693 8.8252 118.484 8.8252C118.328 8.8252 118.245 8.74186 118.234 8.5752C118.224 8.55436 118.219 8.41895 118.219 8.16895V3.91895H117.172V8.49707C117.172 8.88249 117.203 9.16895 117.266 9.35645C117.38 9.6377 117.604 9.77832 117.938 9.77832C118.312 9.77832 118.714 9.54395 119.141 9.0752V9.7002ZM127 4.9502V19.9502C127 21.1898 126.56 22.2497 125.68 23.1299C124.799 24.0101 123.74 24.4502 122.5 24.4502H107.5C106.26 24.4502 105.201 24.0101 104.32 23.1299C103.44 22.2497 103 21.1898 103 19.9502V4.9502C103 3.71061 103.44 2.65072 104.32 1.77051C105.201 0.890299 106.26 0.450195 107.5 0.450195H122.5C123.74 0.450195 124.799 0.890299 125.68 1.77051C126.56 2.65072 127 3.71061 127 4.9502Z" fill="white"/>
</svg>
