<svg width="4" height="16" viewBox="0 0 4 16" fill="none" xmlns="http://www.w3.org/2000/svg">
<path d="M2.00002 8.98145C2.46026 8.98145 2.83335 8.60835 2.83335 8.14811C2.83335 7.68787 2.46026 7.31478 2.00002 7.31478C1.53978 7.31478 1.16669 7.68787 1.16669 8.14811C1.16669 8.60835 1.53978 8.98145 2.00002 8.98145Z" stroke="#98A2B3" stroke-width="1.66667" stroke-linecap="round" stroke-linejoin="round"/>
<path d="M2.00002 3.14811C2.46026 3.14811 2.83335 2.77502 2.83335 2.31478C2.83335 1.85454 2.46026 1.48145 2.00002 1.48145C1.53978 1.48145 1.16669 1.85454 1.16669 2.31478C1.16669 2.77502 1.53978 3.14811 2.00002 3.14811Z" stroke="#98A2B3" stroke-width="1.66667" stroke-linecap="round" stroke-linejoin="round"/>
<path d="M2.00002 14.8148C2.46026 14.8148 2.83335 14.4417 2.83335 13.9814C2.83335 13.5212 2.46026 13.1481 2.00002 13.1481C1.53978 13.1481 1.16669 13.5212 1.16669 13.9814C1.16669 14.4417 1.53978 14.8148 2.00002 14.8148Z" stroke="#98A2B3" stroke-width="1.66667" stroke-linecap="round" stroke-linejoin="round"/>
</svg>
